<svg t="1686898942801" class="icon" viewBox="0 0 1024 1024" version="1.1" xmlns="http://www.w3.org/2000/svg" p-id="13405" width="30" height="30"><path d="M716.8 0c169.664 0 307.2 137.536 307.2 307.2v409.6c0 169.664-137.536 307.2-307.2 307.2H307.2C137.536 1024 0 886.464 0 716.8V307.2C0 137.536 137.536 0 307.2 0h409.6zM512 192c-176.7296 0-320 143.2704-320 320s143.2704 320 320 320 320-143.2704 320-320a320 320 0 0 0-320-320z m-59.7888 185.28c6.6048 0 11.968 5.3632 11.968 11.968v95.8464a11.968 11.968 0 0 0 21.12 7.7184l93.9648-111.2704a12.0192 12.0192 0 0 1 9.152-4.2624h94.7968a11.968 11.968 0 0 1 9.4464 19.3408L476.0832 673.536a11.968 11.968 0 0 1-9.408 4.5952h-69.6704a12.0064 12.0064 0 0 1-11.9808-11.968V444.4032a11.9808 11.9808 0 0 0-11.968-11.968h-34.3808a11.968 11.968 0 0 1-11.9424-11.968v-31.2832a11.9552 11.9552 0 0 1 12.0064-11.904h113.472z" fill="#1677FF" p-id="13406"></path></svg>
